HIERARCHY
ROOT Hips
{
  OFFSET -213.699 104.721 0.752556
  CHANNELS 6 Xposition Yposition Zposition Zrotation Xrotation Yrotation
  JOINT RightUpLeg
  {
    OFFSET -8.9458 -8.66707 0.101652
    CHANNELS 3 Zrotation Xrotation Yrotation
    JOINT RightLeg
    {
      OFFSET 0 -44.4227 1.3727
      CHANNELS 3 Zrotation Xrotation Yrotation
      JOINT RightFoot
      {
        OFFSET 0.253549 -42.0924 -1.46059
        CHANNELS 3 Zrotation Xrotation Yrotation
        JOINT RightToes
        {
          OFFSET 0.04 -4.41509 8.4991
          CHANNELS 3 Zrotation Xrotation Yrotation
          End Site
          {
            OFFSET -0.08 -0.137448 9.77979
          }
        }
      }
    }
  }
  JOINT Spine
  {
    OFFSET 0 11.8905 0
    CHANNELS 3 Zrotation Xrotation Yrotation
    JOINT Spine1
    {
      OFFSET 0 25.6574 0.127663
      CHANNELS 3 Zrotation Xrotation Yrotation
      JOINT HEad
      {
        OFFSET 0 8.73416 0.011341
        CHANNELS 3 Zrotation Xrotation Yrotation
        End Site
        {
          OFFSET -0.29 12.7742 2.51395
        }
      }
      JOINT LeftShoulder1
      {
        OFFSET 8.99 -0.362252 -0.22
        CHANNELS 3 Zrotation Xrotation Yrotation
        JOINT LeftArm
        {
          OFFSET 10.2827 -0.00337999 0.322123
          CHANNELS 3 Zrotation Xrotation Yrotation
          JOINT LeftForeArm
          {
            OFFSET 26.2597 0.099144 -1.42434
            CHANNELS 3 Zrotation Xrotation Yrotation
            JOINT LeftHand
            {
              OFFSET 22.0902 0.085362 1.02216
              CHANNELS 3 Zrotation Xrotation Yrotation
              End Site
              {
                OFFSET 13.419 -0.6 1.50291
              }
            }
          }
        }
      }
      JOINT RightShoulder
      {
        OFFSET -8.99 -0.362252 -0.22
        CHANNELS 3 Zrotation Xrotation Yrotation
        JOINT RightArm
        {
          OFFSET -10.2827 -0.00338 0.322123
          CHANNELS 3 Zrotation Xrotation Yrotation
          JOINT RightForeArm
          {
            OFFSET -26.364 0.099144 -1.42434
            CHANNELS 3 Zrotation Xrotation Yrotation
            JOINT RightHand
            {
              OFFSET -22.0324 0.085362 1.02216
              CHANNELS 3 Zrotation Xrotation Yrotation
              End Site
              {
                OFFSET -13.3284 -0.6 1.50291
              }
            }
          }
        }
      }
    }
  }
  JOINT LeftUpLeg
  {
    OFFSET 8.9458 -8.66707 0.101652
    CHANNELS 3 Zrotation Xrotation Yrotation
    JOINT LeftLeg
    {
      OFFSET 0 -44.4227 1.3727
      CHANNELS 3 Zrotation Xrotation Yrotation
      JOINT LeftFoot
      {
        OFFSET -0.253549 -42.0924 -1.46059
        CHANNELS 3 Zrotation Xrotation Yrotation
        JOINT LeftToes
        {
          OFFSET -0.04 -4.41509 8.4991
          CHANNELS 3 Zrotation Xrotation Yrotation
          End Site
          {
            OFFSET 0.08 -0.047448 9.77979
          }
        }
      }
    }
  }
}
MOTION
Frames:	7
Frame Time:	0.0333333
-213.688 104.721 0.756722 2.90029 0.821225 87.2245 2.10585 2.08947 -0.990904 -0.83665 10.5148 -10.4169 -3.95782 -5.85987 -0.106144 0.0462048 0.000530889 0.662642 -1.86256 1.15859 -0.860027 -0.122908 7.66499 -0.762425 -0.770121 -4.70613 -1.20056 -10.8194 -0.433505 5.90185 -28.4931 -73.3227 -29.6167 -1.77459 65.1902 7.74323 2.53023 9.71329 -7.18577 9.55471 0.111367 -4.12859 2.55728 -43.5539 4.27661 -0.470172 24.2884 3.89772 -1.75484 9.84304 1.69766 -3.14308 -0.0421148 -0.0795881 1.49698 8.52016 12.2583 4.58798 -4.38857 -0.11384 -1.32834e-009 8.75271e-006 -1.4778e-008 
-213.635 104.719 0.772529 2.84751 0.801081 87.3217 2.14113 2.11697 -0.969286 -0.814577 10.4241 -10.5349 -3.95408 -5.83803 -0.10614 0.0462048 0.000530889 0.662642 -1.76876 1.15466 -0.910288 -0.296419 7.59854 -0.77439 -0.995267 -4.66252 -1.2821 -11.0896 -0.525666 6.37545 -30.0465 -72.8573 -31.4314 -2.01185 63.7935 7.75423 2.43542 9.73444 -6.37852 9.58566 0.156549 -3.86136 2.45379 -43.2784 3.93947 -0.257866 24.8548 3.66044 -1.70737 9.83995 1.741 -3.1101 -0.111259 -0.0722062 1.51016 8.60634 12.1675 4.52979 -4.43902 -0.113848 -1.32834e-009 8.75271e-006 -1.4778e-008 
-213.546 104.712 0.797795 2.84496 0.81444 87.4718 2.15425 2.23102 -0.993321 -0.795987 10.3228 -10.682 -4.07208 -5.86905 -0.106146 0.0462048 0.000530889 0.662642 -1.87513 1.31004 -0.931772 -0.257955 7.39435 -0.806503 -0.960638 -4.45879 -1.1221 -11.2922 -0.525282 6.34424 -29.6687 -72.8661 -31.1665 -2.14373 64.4861 7.87961 2.71 9.71087 -6.04637 9.66216 0.16386 -3.8167 2.60614 -43.118 4.12826 -0.0308207 25.2167 3.37106 -1.94191 9.83121 1.22965 -3.13225 -0.0605627 -0.128262 1.56526 8.59553 12.0475 4.50362 -4.50257 -0.113223 -1.32834e-009 8.75271e-006 -1.4778e-008 
-213.461 104.701 0.833637 2.9159 0.79981 87.6745 2.19781 2.39721 -1.00207 -0.781364 10.2821 -10.878 -4.0018 -5.9312 -0.106158 0.0462048 0.000530889 0.662642 -1.97669 1.41663 -0.907422 -0.216128 7.54012 -0.791928 -0.869953 -4.61702 -1.34008 -11.1472 -0.524967 6.36272 -29.7388 -72.728 -31.1366 -2.09578 63.1525 7.74671 2.60401 9.72406 -5.86272 9.66071 0.119892 -4.07506 2.77975 -43.0882 4.26638 0.0245972 25.2966 3.26058 -2.03393 9.82882 0.921421 -3.11199 -0.011646 -0.139394 1.60892 8.74495 11.8792 4.47144 -4.6125 -0.107632 -1.32834e-009 8.75271e-006 -1.4778e-008 
-213.392 104.685 0.874306 2.78545 0.755183 87.8376 2.31519 2.37157 -0.888998 -0.788034 10.1537 -11.174 -4.03883 -5.93982 -0.10616 0.0462048 0.000530889 0.662642 -2.16605 1.38106 -0.888453 -0.0178598 7.55161 -0.824129 -0.637684 -4.92423 -1.39049 -11.1184 -0.547201 6.48824 -30.4053 -73.0342 -31.9183 -1.86015 64.9683 7.77089 2.97839 9.6831 -6.17382 9.61509 0.105933 -4.15881 2.73431 -43.3361 4.12488 -0.216666 25.6639 3.07984 -1.72776 9.84093 1.54618 -3.00516 -0.237732 -0.0745268 1.58822 8.99178 11.6501 4.47238 -4.75434 -0.0976466 -1.32834e-009 8.75271e-006 -1.4778e-008 
-213.298 104.682 0.92101 2.70811 0.748701 88.1785 2.3504 2.40839 -0.926453 -0.713475 10.0897 -11.475 -4.07567 -5.97851 -0.106167 0.0462048 0.000530889 0.662642 -2.58317 1.55266 -0.929181 0.46536 7.27079 -0.979255 -0.0710296 -5.17272 -1.54545 -10.9979 -0.551732 6.53034 -30.3749 -73.3186 -31.9587 -1.47082 64.6766 7.54114 2.7509 9.69928 -6.56585 9.52562 0.0814604 -4.30622 2.82186 -43.4465 4.26709 -0.287672 25.7036 2.93754 -1.82798 9.83422 1.6757 -2.96576 -0.284048 -0.0883173 1.60076 8.98936 11.2282 4.66326 -4.71139 -0.0958929 -1.32834e-009 8.75271e-006 -1.4778e-008 
-213.224 104.681 0.93769 2.69161 0.703925 88.4066 2.41799 2.54556 -0.907183 -0.677831 9.89237 -11.707 -4.10583 -5.95363 -0.106162 0.0462048 0.000530889 0.662642 -2.72179 1.6592 -0.912441 0.67609 7.1153 -1.02001 0.439661 -5.3075 -1.50888 -10.9297 -0.500317 6.25817 -28.198 -73.1037 -29.8997 -2.00588 63.8327 7.75431 3.12884 9.67206 -5.93502 9.42056 0.120514 -4.07881 2.3816 -43.3932 3.6332 -0.36576 25.4592 2.89705 -2.01765 9.82363 1.60634 -2.90527 -0.322897 -0.0666475 1.63328 9.1072 10.9866 4.5745 -4.81461 -0.0968964 -1.32834e-009 8.75271e-006 -1.4778e-008 
